<svg width="175" height="30" viewBox="0 0 175 30" fill="none" xmlns="http://www.w3.org/2000/svg">
<g clip-path="url(#clip0_422_76298)">
<path d="M0 22.9955V29.7144H23.271V25.0952H5.75964V17.4818L0 22.9955ZM0 0V6.02184L5.75964 11.5398V4.61926H22.6569V0H0Z" fill="white"/>
<path d="M44.555 7.03818V18.4981C44.555 20.7028 43.9716 22.3993 42.8003 23.5709C41.6291 24.7426 40.0587 25.3305 38.0759 25.3305C36.3037 25.3305 34.9366 24.8293 33.9744 23.8271C33.0094 22.8235 32.5356 21.3075 32.5356 19.2624V7.03818H27.0041V19.9805C27.0041 23.298 27.9121 25.798 29.7282 27.4805C31.5442 29.163 34.03 30.0029 37.1854 30.0001C38.6622 30.0074 40.1245 29.7214 41.4799 29.1602C42.77 28.6382 43.9114 27.8291 44.8094 26.8002V29.6852H50.0733V7.00879L44.555 7.03818Z" fill="white"/>
<path d="M60.8688 10.3557V7.03819H55.6049V29.7146H61.1408V18.7123C61.1408 16.4475 61.7491 14.7132 62.9656 13.5094C64.1763 12.3167 65.8608 11.712 68.0146 11.712C68.446 11.7184 68.8761 11.7605 69.2999 11.838V6.79883C65.2774 6.79883 62.4831 7.99144 60.8776 10.3725" fill="white"/>
<path d="M87.693 23.5163C86.341 24.7714 84.5317 25.4732 82.6484 25.4732C80.7651 25.4732 78.9558 24.7714 77.6038 23.5163C76.2878 22.2145 75.6298 20.5054 75.6298 18.3848C75.6298 16.2641 76.2922 14.5466 77.6038 13.249C78.9574 11.9969 80.7661 11.297 82.6484 11.297C84.5307 11.297 86.3394 11.9969 87.693 13.249C89.0266 14.5452 89.6919 16.2571 89.6889 18.3848C89.686 20.5124 89.0207 22.2229 87.693 23.5163ZM93.6501 12.3923C92.5805 10.6453 91.0215 9.21969 89.1494 8.27698C87.1375 7.29979 84.9132 6.79053 82.6572 6.79053C80.4011 6.79053 78.1769 7.29979 76.165 8.27698C74.2964 9.22441 72.7386 10.6489 71.6643 12.3923C70.5688 14.2128 70.0108 16.2841 70.05 18.3848C70.0132 20.4878 70.571 22.5612 71.6643 24.3856C72.7276 26.1427 74.2877 27.5765 76.165 28.5219C78.1769 29.4991 80.4011 30.0084 82.6572 30.0084C84.9132 30.0084 87.1375 29.4991 89.1494 28.5219C91.0302 27.5812 92.5915 26.1463 93.6501 24.3856C94.7497 22.5631 95.3121 20.4892 95.2775 18.3848C95.3143 16.2828 94.7516 14.211 93.6501 12.3923Z" fill="white"/>
<path d="M119.435 9.2974C117.633 7.61767 115.241 6.7778 112.258 6.7778C110.649 6.75384 109.05 7.03056 107.551 7.59247C106.211 8.09433 105.024 8.91013 104.099 9.96509V7.02556H98.835V29.7019H104.375V18.242C104.375 16.0415 104.968 14.345 106.152 13.1734C107.336 12.0018 108.942 11.4097 110.977 11.4097C112.771 11.4097 114.162 11.9178 115.14 12.9172C116.118 13.9167 116.605 15.4116 116.605 17.3979V29.7019H122.146V16.7176C122.146 13.4379 121.242 10.9561 119.439 9.2974" fill="white"/>
<path d="M6.60629 12.3462L8.86978 14.513L6.38257 16.8899H20.7488V12.3462H6.60629Z" fill="#00B7B0"/>
<path d="M149.702 16.1211C149.48 14.8061 149.026 13.5367 148.36 12.3669C147.383 10.6341 145.906 9.20699 144.105 8.25573C142.214 7.25708 140.084 6.74896 137.924 6.78177C135.729 6.75246 133.563 7.2644 131.634 8.26833C129.796 9.23104 128.277 10.6667 127.247 12.4131C126.185 14.2338 125.643 16.2907 125.677 18.3761C125.639 20.4797 126.199 22.5537 127.295 24.377C128.376 26.152 129.972 27.5888 131.888 28.5133C134.016 29.5379 136.373 30.0483 138.753 29.9999C140.63 30.0273 142.495 29.7138 144.25 29.076C144.726 28.892 145.19 28.6774 145.636 28.4335L142.013 25.0404C141.009 25.3556 139.959 25.5116 138.902 25.5024C137.078 25.5612 135.284 25.048 133.792 24.041C132.518 23.1661 131.629 21.8681 131.3 20.4002C130.98 18.8066 131.019 17.1658 131.415 15.5878C131.76 14.404 132.462 13.3438 133.432 12.539C134.691 11.5263 136.294 10.9913 137.937 11.0357C139.59 10.9811 141.203 11.5238 142.456 12.5558C143.56 13.4798 144.3 14.7381 144.552 16.1211C144.583 16.2638 144.609 16.4024 144.631 16.541H133.353L137.113 20.06H149.808C149.865 19.384 149.891 18.8632 149.891 18.4895C149.892 17.6938 149.829 16.8991 149.702 16.1127" fill="white"/>
<path d="M164.178 25.5277C163.795 25.6001 163.406 25.6353 163.016 25.6326C162.569 25.663 162.121 25.6024 161.7 25.4547C161.28 25.3071 160.897 25.0757 160.577 24.776C159.971 24.0698 159.669 23.1684 159.735 22.2564V11.4515H165.665L161.134 7.20599H159.735V2.03662H154.194V7.20599H150.29V11.4515H154.194V22.3698C154.194 24.8642 154.903 26.7595 156.322 28.0557C157.74 29.3518 159.749 30.0027 162.349 30.0083C163.346 30.0147 164.338 29.886 165.297 29.6262C166.087 29.4258 166.831 29.0854 167.49 28.6226L164.178 25.5277Z" fill="white"/>
<path d="M173.649 25.1582C174.057 25.3764 174.397 25.6936 174.636 26.0779C174.877 26.4697 175.003 26.9166 175 27.3713C175.006 27.8409 174.88 28.3034 174.636 28.7109C174.402 29.1066 174.061 29.4346 173.649 29.6599C173.223 29.8889 172.742 30.0062 172.254 30C171.772 30.0046 171.296 29.8873 170.877 29.6599C170.464 29.4346 170.123 29.1066 169.89 28.7109C169.646 28.3034 169.52 27.8409 169.526 27.3713C169.523 26.9166 169.649 26.4697 169.89 26.0779C170.128 25.6936 170.469 25.3764 170.877 25.1582C171.298 24.9354 171.773 24.8211 172.254 24.8265C172.741 24.8195 173.222 24.9338 173.649 25.1582ZM173.324 29.1518C173.642 28.9761 173.906 28.7224 174.088 28.4169C174.278 28.0988 174.375 27.7376 174.368 27.3713C174.372 27.0225 174.275 26.6796 174.088 26.3802C173.903 26.0826 173.639 25.8365 173.324 25.6663C172.999 25.4885 172.629 25.3971 172.254 25.4018C171.889 25.4004 171.529 25.4899 171.211 25.6614C170.893 25.8329 170.626 26.0806 170.438 26.3802C170.251 26.6796 170.154 27.0225 170.157 27.3713C170.152 27.7364 170.246 28.0966 170.429 28.4169C170.608 28.7242 170.872 28.9785 171.192 29.1518C171.518 29.3281 171.885 29.4207 172.258 29.4207C172.632 29.4207 172.999 29.3281 173.324 29.1518ZM172.802 27.5434C172.791 27.5531 172.782 27.5657 172.777 27.5798C172.773 27.5939 172.772 27.6089 172.776 27.6232L173.118 28.4379C173.123 28.4586 173.123 28.4802 173.118 28.5009C173.118 28.5639 173.079 28.5933 173.008 28.5933H172.745C172.71 28.5966 172.674 28.5879 172.644 28.5688C172.615 28.5496 172.593 28.5211 172.583 28.4883L172.267 27.6484C172.263 27.637 172.256 27.6271 172.245 27.6203C172.235 27.6134 172.223 27.6101 172.21 27.6106H172.048C172.008 27.6106 171.991 27.6106 171.991 27.661V28.4505C171.994 28.4682 171.992 28.4864 171.987 28.5035C171.981 28.5207 171.971 28.5362 171.958 28.5489C171.944 28.5617 171.928 28.5712 171.91 28.5767C171.892 28.5822 171.873 28.5836 171.855 28.5807H171.635C171.617 28.5836 171.598 28.5822 171.58 28.5767C171.562 28.5712 171.546 28.5617 171.533 28.5489C171.519 28.5362 171.509 28.5207 171.504 28.5035C171.498 28.4864 171.496 28.4682 171.499 28.4505V26.3508C171.497 26.3332 171.499 26.3154 171.506 26.2987C171.512 26.282 171.522 26.2668 171.535 26.2543C171.548 26.2418 171.564 26.2323 171.581 26.2265C171.599 26.2206 171.617 26.2186 171.635 26.2206H172.403C172.502 26.2167 172.602 26.233 172.694 26.2685C172.786 26.304 172.869 26.3578 172.938 26.4264C173.007 26.4951 173.06 26.5761 173.096 26.6648C173.131 26.7535 173.148 26.848 173.144 26.9429C173.156 27.0668 173.127 27.1909 173.063 27.2989C172.999 27.4069 172.902 27.4936 172.785 27.5476L172.802 27.5434ZM171.991 26.6826V27.2201C171.991 27.2537 171.991 27.2705 172.048 27.2705H172.333C172.375 27.2724 172.417 27.266 172.456 27.2515C172.496 27.237 172.531 27.2149 172.561 27.1865C172.591 27.1555 172.614 27.1191 172.629 27.0794C172.644 27.0398 172.651 26.9977 172.649 26.9555C172.655 26.869 172.627 26.7834 172.57 26.7162C172.539 26.6861 172.502 26.6627 172.461 26.6475C172.421 26.6323 172.377 26.6256 172.333 26.628H172.048C172.008 26.628 171.991 26.628 171.991 26.6826Z" fill="white"/>
</g>
<defs>
<clipPath id="clip0_422_76298">
<rect width="175" height="30" fill="white"/>
</clipPath>
</defs>
</svg>
